<svg width="307" height="154" viewBox="0 0 307 154" fill="none" xmlns="http://www.w3.org/2000/svg">
<g clip-path="url(#clip0_1093_44610)">
<path d="M101.101 154C91.8379 154 82.5882 153.834 73.3524 153.502C60.1556 153.028 46.5094 152.538 33.8258 145.498C24.9531 140.574 17.0949 132.674 11.101 122.652C7.09482 115.859 4.1573 108.489 2.39164 100.802C-0.902002 86.8056 -0.789816 72.2229 2.71876 58.2793C3.9483 53.4986 5.64331 48.8501 7.77946 44.4004C17.0291 25.2335 33.8998 12.3672 54.0658 9.10097C54.2324 9.07934 54.4008 9.07574 54.5681 9.09024C54.6588 9.0951 54.7492 9.1003 54.8413 9.09644L54.96 9.0587C55.2641 8.95292 55.5766 8.87269 55.894 8.81883C86.9954 4.18566 119.874 13.5602 150.973 35.9283C175.019 53.2256 206.886 62.5399 248.397 64.4035L248.986 64.4344C260.541 65.0986 271.719 69.8658 281.312 78.2213C290.78 86.4682 297.889 97.471 301.87 110.041C302.359 111.573 302.808 113.169 303.204 114.782C303.572 116.281 303.546 117.85 303.128 119.337C302.711 120.823 301.916 122.176 300.821 123.264V123.267L300.717 123.373C300.469 123.621 300.207 123.858 299.939 124.079L299.624 124.339C296.971 126.526 294.876 128.253 292.368 129.595C290.696 130.483 288.917 131.155 287.075 131.595C276.96 134.062 266.687 136.35 256.543 138.395C236.843 142.37 216.623 145.649 196.446 148.141C164.814 152.044 132.973 154.001 101.101 154ZM54.3322 9.76909C54.2703 9.7685 54.2084 9.77271 54.1471 9.78167C34.1695 13.0174 17.4586 25.7573 8.30065 44.7345C6.18558 49.1401 4.50735 53.7425 3.29003 58.4759C-0.186575 72.2959 -0.297365 86.7491 2.96698 100.621C4.71536 108.235 7.6244 115.534 11.5919 122.262C17.5271 132.186 25.305 140.007 34.0847 144.879C46.6544 151.855 60.2363 152.343 73.3711 152.815C114.452 154.284 155.584 152.493 196.382 147.458C216.546 144.968 236.753 141.691 256.44 137.718C266.577 135.675 276.843 133.389 286.952 130.922C288.749 130.494 290.485 129.839 292.117 128.971C294.574 127.657 296.65 125.946 299.277 123.78L299.592 123.521C299.822 123.331 300.048 123.127 300.264 122.916L300.326 122.851C302.485 120.673 303.325 117.8 302.63 114.969V114.968C302.238 113.372 301.795 111.794 301.31 110.277C293.177 84.5995 272.138 66.453 248.957 65.1208L248.371 65.0899C229.41 64.2385 212.817 61.88 197.647 57.8791C179.538 53.1031 163.728 45.9138 150.657 36.511C119.677 14.2286 86.9356 4.88899 55.97 9.50019C55.6808 9.55012 55.3962 9.62396 55.1191 9.72094L54.9052 9.78082C54.7837 9.78626 54.662 9.78481 54.5407 9.77646C54.4692 9.77278 54.3999 9.76909 54.3322 9.76909H54.3322Z" fill="#F0F0F0"/>
<path d="M95.8942 50.1751C95.0367 49.3518 94.1595 44.7604 93.0647 44.2943C93.8831 46.1043 93.2889 46.5835 93.2845 48.5698C93.2948 49.6978 93.1632 50.8225 92.8927 51.9175H74.3459V37.4335C74.3459 36.1321 74.602 34.8434 75.0997 33.641C75.5974 32.4386 76.3269 31.3461 77.2465 30.4259C78.1662 29.5056 79.2579 28.7757 80.4595 28.2777C81.6611 27.7796 82.9489 27.5233 84.2495 27.5234C84.7458 27.5331 85.239 27.6053 85.7174 27.7384C87.3115 28.1691 88.7645 29.0117 89.9305 30.1817C91.0965 31.3517 91.9345 32.8079 92.3605 34.4043C93.7744 39.5757 96.0231 48.1839 95.8942 50.1751Z" fill="#2F2E41"/>
<path d="M75.4342 67.9931L75.4434 56.7037L68.8115 57.2967L71.152 64.4169L70.0567 82.3138C69.5254 82.4331 69.0403 82.7045 68.6605 83.0949C68.2807 83.4853 68.0226 83.9779 67.9178 84.5125C67.8129 85.0472 67.8657 85.6008 68.0699 86.1059C68.274 86.611 68.6206 87.0458 69.0674 87.3572C69.5141 87.6686 70.0418 87.8432 70.5861 87.8597C71.1303 87.8762 71.6676 87.7338 72.1324 87.4501C72.5972 87.1663 72.9694 86.7533 73.2037 86.2615C73.438 85.7697 73.5242 85.2203 73.4519 84.6803L75.4342 67.9931Z" fill="#FFB6B6"/>
<path d="M88.4856 148.668L91.1647 148.667L92.4394 138.326H88.4849L88.4856 148.668Z" fill="#FFB6B6"/>
<path d="M87.578 147.345L91.8134 147.092V148.908L95.8401 151.691C96.0389 151.828 96.1887 152.025 96.2676 152.254C96.3464 152.483 96.3501 152.731 96.2782 152.962C96.2062 153.192 96.0624 153.394 95.8677 153.538C95.673 153.681 95.4377 153.758 95.196 153.758H90.1536L89.2845 151.962L88.9451 153.758H87.0439L87.578 147.345Z" fill="#2F2E41"/>
<path d="M72.9935 148.668L75.673 148.667L76.9473 138.326H72.9932L72.9935 148.668Z" fill="#FFB6B6"/>
<path d="M72.0863 147.345L76.3217 147.092V148.908L80.3484 151.691C80.5473 151.828 80.697 152.025 80.7759 152.254C80.8547 152.483 80.8584 152.731 80.7865 152.962C80.7145 153.192 80.5707 153.394 80.376 153.538C80.1814 153.681 79.946 153.758 79.7043 153.758H74.6619L73.7928 151.962L73.4534 153.758H71.5522L72.0863 147.345Z" fill="#2F2E41"/>
<path d="M86.0995 44.5121L80.5492 44.6211L76.6313 48.7593L73.4903 49.2203C72.0694 49.4289 70.7632 50.1191 69.7898 51.1756C68.8164 52.2322 68.235 53.591 68.1426 55.0251L68.6867 58.016H71.9516L73.8404 69.1131C73.1059 70.9858 73.056 72.4639 74.5635 73.0445L79.2432 81.8656L93.0646 75.6582C93.7655 74.4524 93.9901 73.2412 93.2737 72.0634L94.2617 55.0757H97.584C97.584 51.8984 96.51 49.2199 93.3546 48.8663C92.1015 48.7306 90.8424 48.6586 89.582 48.6504L86.0995 44.5121Z" fill="#E6E6E6"/>
<path d="M93.0645 75.6582C93.0645 75.6582 79.5696 78.0541 74.5635 73.0446C74.5635 73.0446 74.0552 73.908 73.2894 75.3399C73.0691 75.7517 72.6438 76.0306 72.3869 76.5294C72.1534 76.9828 71.5529 77.5401 71.2986 78.0542C71.094 78.4678 71.4222 79.0084 71.2093 79.4552C68.6455 84.8362 65.6502 92.4266 66.2924 97.4387C66.7065 100.671 67.5618 108.192 68.4626 116.27C68.533 116.901 67.9629 117.712 68.0337 118.348C68.1004 118.948 68.8079 119.373 68.8746 119.974C68.9189 120.373 68.4248 120.781 68.469 121.179C68.5175 121.617 69.1042 122.046 69.1524 122.482C70.3864 133.635 71.5162 144.049 71.5162 144.049H77.8284L79.0193 120.265L78.046 111.596L80.3314 94.0627L83.4875 110.725L83.8935 120.102L87.2289 144.484H93.0645V120.881L93.4998 119.655L93.0645 118.082L93.4998 116.388L93.0645 114.542V75.6582Z" fill="black"/>
<path d="M87.8031 41.2913C86.9433 42.4342 85.7202 43.25 84.3352 43.6043C82.9502 43.9587 81.4859 43.8305 80.1835 43.2408C78.881 42.6512 77.8181 41.6353 77.1697 40.3604C76.5213 39.0855 76.3262 37.6276 76.6164 36.2269C76.9066 34.8262 77.6648 33.5661 78.7663 32.6542C79.8678 31.7424 81.2467 31.233 82.6761 31.2102C84.1055 31.1873 85.5 31.6522 86.6301 32.5283C87.7601 33.4044 88.5583 34.6396 88.8931 36.0303C88.9112 36.1057 88.9265 36.1808 88.9413 36.2587C89.1182 37.1304 89.1082 38.0297 88.912 38.8972C88.7157 39.7648 88.3378 40.5808 87.8031 41.2913Z" fill="#FFB6B6"/>
<path d="M86.4914 37.6992C86.3579 37.0289 86.0203 36.4164 85.525 35.9458C85.5739 36.5882 85.4848 37.2335 85.2638 37.8386C83.6091 37.9852 81.947 37.6557 80.4731 36.8889C79.3631 36.1353 77.9505 36.2007 76.3049 36.8889C76.3048 36.088 76.4624 35.295 76.7686 34.555C77.0749 33.8151 77.5238 33.1427 78.0897 32.5764C78.6557 32.0101 79.3276 31.5609 80.067 31.2544C80.8065 30.948 81.599 30.7903 82.3994 30.7904H83.4877C85.104 30.7907 86.6539 31.4333 87.7968 32.577C88.9397 33.7206 89.5819 35.2716 89.5822 36.8889C88.5777 37.2494 87.5434 37.5206 86.4914 37.6992Z" fill="#2F2E41"/>
<path d="M38.8789 115.427C48.5486 115.427 56.3875 107.583 56.3875 97.9071C56.3875 88.2309 48.5486 80.3868 38.8789 80.3868C29.2092 80.3868 21.3704 88.2309 21.3704 97.9071C21.3704 107.583 29.2092 115.427 38.8789 115.427Z" fill="#F0F0F0"/>
<path d="M150.453 35.0404C160.123 35.0404 167.962 27.1964 167.962 17.5202C167.962 7.84407 160.123 0 150.453 0C140.783 0 132.945 7.84407 132.945 17.5202C132.945 27.1964 140.783 35.0404 150.453 35.0404Z" fill="#F0F0F0"/>
<path d="M289.491 118.176C299.161 118.176 307 110.331 307 100.655C307 90.9792 299.161 83.1351 289.491 83.1351C279.822 83.1351 271.983 90.9792 271.983 100.655C271.983 110.331 279.822 118.176 289.491 118.176Z" fill="#F0F0F0"/>
<path d="M182.037 19.4309V59.1592C182.037 59.9844 181.712 60.7763 181.132 61.3629C180.552 61.9495 179.764 62.2834 178.939 62.292C178.928 62.2932 178.916 62.2936 178.905 62.2934H174.284C170.587 62.2934 167.041 60.8237 164.427 58.2076C161.812 55.5916 160.344 52.0434 160.344 48.3437V19.4309C160.344 18.5996 160.674 17.8024 161.261 17.2147C161.849 16.6269 162.645 16.2967 163.476 16.2967H165.348C164.481 18.8288 176.253 19.8948 176.9 16.2967H178.905C179.736 16.2967 180.532 16.6269 181.12 17.2147C181.707 17.8025 182.037 18.5997 182.037 19.4309Z" fill="#AE8625"/>
<path d="M168.324 13.3259C168.325 13.217 168.368 13.1126 168.445 13.0356C168.522 12.9586 168.626 12.9153 168.735 12.9152H171.526C171.635 12.9155 171.739 12.9589 171.816 13.0359C171.892 13.1129 171.935 13.2172 171.935 13.3259C171.935 13.4346 171.892 13.5389 171.816 13.6159C171.739 13.6929 171.635 13.7363 171.526 13.7367H168.735C168.626 13.7365 168.522 13.6932 168.445 13.6162C168.368 13.5392 168.325 13.4348 168.324 13.3259Z" fill="#3F3D56"/>
<path d="M179.864 67.3326H162.213C160.843 67.331 159.53 66.786 158.562 65.817C157.593 64.848 157.049 63.5342 157.047 62.1638V34.3921C156.95 34.3224 156.871 34.2307 156.817 34.1244C156.762 34.0181 156.734 33.9004 156.734 33.781V30.988C156.734 30.8686 156.762 30.7509 156.817 30.6446C156.871 30.5384 156.95 30.4467 157.047 30.377V29.6274C156.95 29.5578 156.871 29.4661 156.817 29.3598C156.762 29.2536 156.734 29.1359 156.734 29.0165V26.2233C156.734 26.1039 156.762 25.9862 156.817 25.88C156.871 25.7737 156.95 25.682 157.047 25.6124V24.2575C156.927 24.1932 156.827 24.0975 156.758 23.9808C156.688 23.864 156.652 23.7305 156.652 23.5946V20.8015C156.652 20.6656 156.688 20.5321 156.758 20.4153C156.827 20.2985 156.927 20.2028 157.047 20.1385V16.426C157.049 15.0556 157.593 13.7418 158.562 12.7728C159.53 11.8039 160.843 11.2588 162.213 11.2573H179.864C181.233 11.2588 182.546 11.8039 183.515 12.7729C184.483 13.7419 185.028 15.0557 185.029 16.426V24.5184C185.122 24.5766 185.199 24.6575 185.252 24.7535C185.305 24.8496 185.333 24.9576 185.333 25.0674V30.3932C185.333 30.503 185.305 30.611 185.252 30.707C185.199 30.8031 185.122 30.8841 185.029 30.9423V62.1638C185.028 63.5342 184.483 64.848 183.515 65.817C182.546 66.786 181.233 67.331 179.864 67.3326ZM162.213 11.9443C161.025 11.9457 159.887 12.4183 159.047 13.2585C158.207 14.0986 157.735 15.2378 157.734 16.426V20.7229L157.403 20.7356C157.386 20.7362 157.37 20.7434 157.358 20.7557C157.346 20.768 157.339 20.7844 157.339 20.8016V23.5946C157.339 23.6118 157.346 23.6281 157.358 23.6404C157.37 23.6527 157.386 23.6598 157.403 23.6605L157.734 23.6731V26.0948L157.472 26.1592C157.458 26.1627 157.445 26.1709 157.436 26.1824C157.426 26.194 157.421 26.2084 157.421 26.2233V29.0165C157.421 29.0314 157.426 29.0457 157.436 29.0573C157.445 29.0689 157.458 29.0771 157.472 29.0806L157.734 29.145V30.8594L157.472 30.9239C157.458 30.9274 157.445 30.9355 157.436 30.9471C157.426 30.9587 157.421 30.9731 157.421 30.9879V33.781C157.421 33.7959 157.426 33.8103 157.436 33.8219C157.445 33.8335 157.458 33.8417 157.472 33.8452L157.734 33.9097V62.1638C157.735 63.352 158.207 64.4912 159.047 65.3314C159.887 66.1716 161.025 66.6442 162.213 66.6455H179.864C181.051 66.6441 182.19 66.1715 183.029 65.3313C183.869 64.4911 184.341 63.352 184.343 62.1638V30.3541H184.647V25.1066H184.343V16.426C184.341 15.2378 183.869 14.0987 183.029 13.2585C182.19 12.4183 181.051 11.9457 179.864 11.9443L162.213 11.9443Z" fill="#3F3D56"/>
<path d="M173.086 13.7367C173.313 13.7367 173.496 13.5528 173.496 13.3259C173.496 13.0991 173.313 12.9152 173.086 12.9152C172.859 12.9152 172.676 13.0991 172.676 13.3259C172.676 13.5528 172.859 13.7367 173.086 13.7367Z" fill="#3F3D56"/>
<path d="M83.7938 92.8925H37.8641C37.2118 92.8908 36.5867 92.6308 36.1255 92.1693C35.6643 91.7078 35.4043 91.0824 35.4026 90.4297V68.0351C35.4043 67.3824 35.6641 66.7569 36.1253 66.2954C36.5864 65.8338 37.2115 65.5737 37.8637 65.572H83.7935C84.4457 65.5736 85.0708 65.8336 85.532 66.2951C85.9933 66.7566 86.2532 67.3821 86.2549 68.0347V90.4294C86.2533 91.082 85.9934 91.7075 85.5323 92.1691C85.0711 92.6306 84.4461 92.8907 83.7938 92.8925Z" fill="white"/>
<path d="M83.7938 92.8925H37.8641C37.2118 92.8908 36.5867 92.6308 36.1255 92.1693C35.6643 91.7078 35.4043 91.0824 35.4026 90.4297V68.0351C35.4043 67.3824 35.6641 66.7569 36.1253 66.2954C36.5864 65.8338 37.2115 65.5737 37.8637 65.572H83.7935C84.4457 65.5736 85.0708 65.8336 85.532 66.2951C85.9933 66.7566 86.2532 67.3821 86.2549 68.0347V90.4294C86.2533 91.082 85.9934 91.7075 85.5323 92.1691C85.0711 92.6306 84.4461 92.8907 83.7938 92.8925ZM37.8641 66.259C37.3937 66.2604 36.943 66.448 36.6105 66.7809C36.2779 67.1137 36.0905 67.5647 36.0892 68.0354V90.4293C36.0906 90.9 36.278 91.351 36.6107 91.6838C36.9433 92.0166 37.394 92.2041 37.8644 92.2054H83.7931C84.2636 92.2041 84.7143 92.0165 85.047 91.6837C85.3796 91.3508 85.567 90.8997 85.5683 90.429V68.0351C85.5669 67.5644 85.3795 67.1134 85.0468 66.7806C84.7142 66.4479 84.2635 66.2604 83.7931 66.259L37.8641 66.259Z" fill="#3F3D56"/>
<path d="M63.2905 89.5829C54.2322 89.5829 44.7868 89.4963 41.2626 89.4401C40.7989 89.4305 40.3574 89.24 40.0322 88.9091C39.707 88.5782 39.524 88.1332 39.5222 87.6691V69.1315C39.5224 68.9653 39.5883 68.806 39.7056 68.6883C39.8229 68.5706 39.982 68.5043 40.1481 68.5037H81.508C81.674 68.5039 81.8332 68.5698 81.9508 68.6872C82.0683 68.8045 82.1347 68.9637 82.1353 69.1298V81.7073C82.1275 83.7604 81.316 85.7287 79.8747 87.1899C78.4334 88.6511 76.4772 89.4889 74.4257 89.5234C71.1412 89.5662 67.2519 89.5829 63.2905 89.5829Z" fill="#AE8625"/>
<path d="M79.0531 80.5518H41.6811C41.3682 80.5509 41.0631 80.4537 40.8073 80.2732C40.5516 80.0928 40.3575 79.838 40.2516 79.5433L36.0216 67.6686C35.9401 67.4396 35.9147 67.1943 35.9475 66.9534C35.9804 66.7125 36.0705 66.483 36.2103 66.2842C36.3502 66.0854 36.5357 65.9231 36.7512 65.8109C36.9667 65.6987 37.206 65.6399 37.449 65.6394L84.1632 65.5743C84.3853 65.5741 84.6047 65.6226 84.806 65.7164C85.0073 65.8103 85.1856 65.9471 85.3283 66.1174C85.471 66.2876 85.5746 66.4871 85.6319 66.7018C85.6892 66.9165 85.6987 67.1412 85.6598 67.3599L85.6959 67.3752L85.5618 67.6884L85.5604 67.6916L80.4469 79.6312C80.3304 79.9045 80.1362 80.1375 79.8883 80.3012C79.6405 80.4649 79.35 80.552 79.0531 80.5518ZM84.1654 66.2614L37.4503 66.3265C37.3172 66.3267 37.1861 66.3589 37.068 66.4204C36.95 66.4818 36.8484 66.5707 36.7717 66.6796C36.6951 66.7885 36.6457 66.9142 36.6277 67.0462C36.6098 67.1781 36.6237 67.3125 36.6683 67.4379L40.8981 79.3122C40.9562 79.4736 41.0626 79.6132 41.2028 79.7121C41.343 79.8109 41.5101 79.8642 41.6816 79.8647H79.0531C79.2156 79.8648 79.3745 79.8171 79.5101 79.7275C79.6457 79.6379 79.752 79.5104 79.8158 79.3608L84.9295 67.4208L85.1809 67.5287L84.9295 67.4208C84.9837 67.2943 85.0056 67.1563 84.9934 67.0192C84.9812 66.8821 84.9351 66.7502 84.8594 66.6353C84.7837 66.5203 84.6806 66.426 84.5595 66.3608C84.4384 66.2955 84.303 66.2614 84.1654 66.2614Z" fill="#3F3D56"/>
<path d="M60.7591 83.1366C62.3753 83.1366 63.6854 81.8256 63.6854 80.2083C63.6854 78.5911 62.3753 77.28 60.7591 77.28C59.1429 77.28 57.8328 78.5911 57.8328 80.2083C57.8328 81.8256 59.1429 83.1366 60.7591 83.1366Z" fill="white"/>
<path d="M171.303 57.7151C172.919 57.7151 174.23 56.4041 174.23 54.7868C174.23 53.1696 172.919 51.8585 171.303 51.8585C169.687 51.8585 168.377 53.1696 168.377 54.7868C168.377 56.4041 169.687 57.7151 171.303 57.7151Z" fill="white"/>
<path d="M281.983 97.2613L274.166 89.5386C273.786 89.1597 273.334 88.8597 272.838 88.6557C272.341 88.4517 271.809 88.3479 271.272 88.35H271.245C270.704 88.3516 270.169 88.4605 269.67 88.6704C269.172 88.8803 268.72 89.1871 268.341 89.573C266.593 91.3431 265.599 93.7222 265.567 96.2105C265.536 98.6987 266.47 101.102 268.172 102.916C268.255 103.005 268.341 103.091 268.426 103.177C268.902 103.65 269.427 104.07 269.992 104.431C271.537 105.43 273.339 105.959 275.179 105.953H275.238C276.5 105.948 277.75 105.694 278.914 105.203C280.077 104.712 281.133 103.996 282.018 103.094C282.785 102.316 283.212 101.264 283.206 100.171C283.199 99.0773 282.76 98.031 281.983 97.2613ZM281.53 102.61C280.079 104.073 278.168 104.991 276.119 105.209C274.071 105.426 272.01 104.931 270.284 103.806C269.79 103.479 269.329 103.105 268.907 102.689C267.223 101.024 266.268 98.7585 266.253 96.3896C266.238 94.0207 267.165 91.743 268.828 90.0574C269.144 89.7349 269.521 89.4787 269.937 89.3035C270.354 89.1284 270.8 89.0378 271.252 89.0371H271.272C271.719 89.0355 272.162 89.1221 272.576 89.2918C272.989 89.4616 273.365 89.7112 273.682 90.0265L281.499 97.7525C282.147 98.393 282.513 99.2642 282.519 100.175C282.525 101.086 282.169 101.961 281.53 102.61Z" fill="#3F3D56"/>
<path d="M256.335 71.9153L248.518 64.1892C247.748 63.4253 246.708 62.9979 245.624 63.0006H245.6C245.058 63.0028 244.522 63.1123 244.023 63.3228C243.524 63.5333 243.072 63.8406 242.692 64.227C241.247 65.6955 240.31 67.5885 240.019 69.6286C239.727 71.6687 240.096 73.7487 241.072 75.5636L241.075 75.5671C241.478 76.3094 241.977 76.9945 242.562 77.6042C242.627 77.6798 242.702 77.7554 242.778 77.831C244.573 79.614 247.001 80.6122 249.531 80.6067H249.592C250.855 80.6014 252.105 80.3458 253.269 79.8547C254.432 79.3635 255.487 78.6465 256.373 77.7451C256.753 77.3598 257.053 76.9034 257.257 76.4019C257.461 75.9005 257.564 75.3637 257.561 74.8223C257.557 74.281 257.447 73.7456 257.237 73.2468C257.026 72.748 256.72 72.2956 256.335 71.9153V71.9153ZM255.882 77.2641C255.06 78.1006 254.081 78.766 253.001 79.2217C251.921 79.6775 250.761 79.9147 249.589 79.9197H249.531C247.77 79.919 246.049 79.3974 244.584 78.4207C243.12 77.4439 241.976 76.0555 241.298 74.43C240.619 72.8046 240.436 71.0147 240.772 69.2854C241.107 67.5562 241.946 65.9648 243.183 64.7114C243.823 64.0639 244.694 63.697 245.604 63.6912C246.514 63.6854 247.389 64.0412 248.037 64.6805L255.854 72.4031C256.501 73.0447 256.867 73.9167 256.872 74.828C256.877 75.7392 256.521 76.6153 255.882 77.2641L255.882 77.2641Z" fill="#3F3D56"/>
<path d="M282.483 99.6892L273.865 91.1717C273.3 90.6145 272.537 90.3043 271.744 90.3092C270.95 90.3141 270.191 90.6338 269.633 91.198C268.935 91.9039 268.382 92.7406 268.007 93.6602C267.633 94.5798 267.443 95.5644 267.448 96.5576C267.454 97.5508 267.655 98.5331 268.04 99.4484C268.425 100.364 268.987 101.194 269.693 101.892C270.4 102.59 271.236 103.142 272.156 103.516C273.075 103.89 274.059 104.079 275.052 104.072C276.044 104.066 277.026 103.863 277.94 103.477C278.854 103.09 279.684 102.527 280.38 101.82L282.483 99.6892Z" fill="#AE8625"/>
<path d="M256.836 74.3419L248.218 65.8245C247.653 65.2672 246.89 64.957 246.097 64.9619C245.303 64.9668 244.544 65.2865 243.986 65.8507C243.288 66.5566 242.735 67.3933 242.361 68.3129C241.986 69.2325 241.796 70.2171 241.801 71.2103C241.807 72.2035 242.008 73.1858 242.393 74.1011C242.778 75.0165 243.34 75.8468 244.046 76.5448C244.753 77.2427 245.589 77.7945 246.509 78.1686C247.428 78.5427 248.412 78.7319 249.405 78.7251C250.397 78.7184 251.379 78.516 252.293 78.1295C253.207 77.743 254.037 77.1799 254.733 76.4724L256.836 74.3419Z" fill="#AE8625"/>
<path d="M273.013 104.994L272.807 105.537C271.839 105.169 270.9 104.801 269.992 104.431C253.898 97.859 246.214 90.1673 241.075 75.5671L241.072 75.5637C240.828 74.8766 240.591 74.1735 240.361 73.4544L240.904 73.2792C241.085 73.9708 241.35 74.6376 241.693 75.2648C241.975 76.0652 242.264 76.8451 242.562 77.6043C247.392 89.9268 254.516 96.9693 268.172 102.916C268.859 103.215 269.563 103.511 270.284 103.806C271.121 104.351 272.043 104.753 273.013 104.994Z" fill="#3F3D56"/>
<path d="M248.375 79.9814L247.892 80.4703L265.723 98.0929L266.205 97.6039L248.375 79.9814Z" fill="#3F3D56"/>
<path d="M97.4179 65.3795L97.427 54.09L90.7952 54.6831L93.1357 61.8033L84.6399 74.6906C84.1086 74.8099 83.6235 75.0813 83.2437 75.4718C82.864 75.8622 82.6059 76.3547 82.501 76.8894C82.3962 77.424 82.449 77.9776 82.6531 78.4827C82.8573 78.9878 83.2038 79.4226 83.6506 79.734C84.0974 80.0454 84.6251 80.22 85.1693 80.2365C85.7135 80.253 86.2508 80.1107 86.7156 79.8269C87.1804 79.5431 87.5526 79.1301 87.7869 78.6383C88.0212 78.1465 88.1075 77.5971 88.0351 77.0571L97.4179 65.3795Z" fill="#FFB6B6"/>
</g>
<defs>
<clipPath id="clip0_1093_44610">
<rect width="307" height="154" fill="white"/>
</clipPath>
</defs>
</svg>
